<svg xmlns:xlink="http://www.w3.org/1999/xlink" xmlns="http://www.w3.org/2000/svg" width="22" height="25" viewBox="0 0 22 25" fill="none">
                    <path fill-rule="evenodd" clip-rule="evenodd" d="M15.6954 4.63466C15.5819 2.06428 13.4474 0 10.8501 0C8.18068 0 6.00012 2.18056 6.00012 4.85V7H2.85013C2.42145 7 2.05986 7.31921 2.00669 7.74457L0.00668904 23.7446C-0.0567266 24.2519 0.338852 24.7 0.850125 24.7H20.8501C21.3614 24.7 21.757 24.2519 21.6936 23.7446L19.6936 7.74457C19.6404 7.31921 19.2788 7 18.8501 7H15.7001V4.85L15.6954 4.63466ZM14.0001 7V4.85C14.0001 3.11944 12.5807 1.7 10.8501 1.7C9.17924 1.7 7.79838 3.02324 7.70514 4.67213L7.70012 4.85V7H14.0001Z" fill="#FF6500"></path>
                </svg>