<svg width="26" height="26" viewBox="0 0 26 26" fill="none" xmlns="http://www.w3.org/2000/svg">
<path d="M7.64716 20.8942C6.24505 20.8942 5.11061 22.0415 5.11061 23.4436C5.11061 24.8458 6.24505 25.993 7.64716 25.993C9.04928 25.993 10.1965 24.8458 10.1965 23.4436C10.1965 22.0415 9.04928 20.8942 7.64716 20.8942ZM-0.000732422 0.499146V3.04853H2.54857L7.1373 12.7235L5.41653 15.8464C5.21258 16.2034 5.09786 16.624 5.09786 17.0702C5.09786 18.4723 6.24505 19.6195 7.64716 19.6195H22.943V17.0702H8.18252C8.00406 17.0702 7.86385 16.9299 7.86385 16.7515L7.90209 16.5985L9.04928 14.5208H18.5454C19.5014 14.5208 20.3427 13.9981 20.776 13.2078L25.3393 4.93508C25.4445 4.74054 25.4974 4.52205 25.4929 4.30095C25.4883 4.07986 25.4266 3.86371 25.3135 3.67363C25.2005 3.48354 25.0401 3.32603 24.8481 3.21647C24.656 3.1069 24.4387 3.04904 24.2176 3.04853H5.36554L4.16737 0.499146H-0.000732422ZM20.3937 20.8942C18.9915 20.8942 17.8571 22.0415 17.8571 23.4436C17.8571 24.8458 18.9915 25.993 20.3937 25.993C21.7958 25.993 22.943 24.8458 22.943 23.4436C22.943 22.0415 21.7958 20.8942 20.3937 20.8942Z" fill="white" fill-opacity="0.8"/>
</svg>
